<?xml version="1.0" encoding="UTF-8" standalone="no"?>
<!-- Created with Inkscape (http://www.inkscape.org/) -->

<svg
   width="115mm"
   height="87mm"
   viewBox="0 0 115 87"
   version="1.1"
   id="svg5"
   xmlns="http://www.w3.org/2000/svg"
   xmlns:svg="http://www.w3.org/2000/svg">
  <defs
     id="defs2" />
  <g
     id="layer1">
    <g
       id="g41571"
       transform="translate(-52.175362,-66.403011)">
      <path
         style="fill:#8e2d25;fill-opacity:1;stroke:none;stroke-width:0.264583px;stroke-linecap:butt;stroke-linejoin:miter;stroke-opacity:1"
         d="m 70.716004,81.681427 c 0.661967,-0.845562 -1.107599,-12.704996 10.875599,-15.218208 2.983041,-0.625627 11.036207,3.779354 16.323332,6.03033 4.147345,1.765719 5.056385,6.249663 5.251585,8.953509 4.46344,2.575696 11.62818,5.295146 15.65478,7.19181 2.73495,3.572201 4.87042,9.461215 2.47323,13.268322 -2.69684,1.41413 -6.66043,0.25437 -11.47806,3.08565 0.18842,2.97276 10.17036,21.14477 10.17036,21.14477 0,0 -10.5289,13.09999 -16.36338,10.96373 -4.536813,-1.66113 -8.55915,-4.07189 -13.442094,-5.85775 -1.746631,3.3999 -3.10739,7.01278 -4.284758,7.46828 -12.622026,2.33718 -16.399226,4.22813 -18.790849,2.63328 -10.905035,-5.04339 -12.26004,-5.30238 -12.553123,-6.90047 -0.589351,-3.21355 0.953828,-8.14393 2.449849,-11.93307 2.331888,-5.90623 3.384893,-7.59398 5.879899,-13.25066 -4.710593,-2.42073 -9.074242,-3.68063 -9.860249,-5.51564 -1.369936,-3.19826 -1.054024,-6.152633 0.776654,-9.111383 3.117286,-5.038172 10.853653,-9.423476 16.917225,-12.9525 z"
         id="path162" />
      <path
         style="fill:#c94236;fill-opacity:1;stroke:none;stroke-width:0.265;stroke-linecap:butt;stroke-linejoin:miter;stroke-miterlimit:4;stroke-dasharray:none;stroke-opacity:1"
         d="m 93.229892,124.09652 c -3.296717,3.7811 -6.650124,12.18489 -7.550153,13.24997 -0.465047,0.55033 -15.4261,3.67127 -16.786031,3.3525 -1.15005,-0.26957 -1.372917,-3.29705 0.731282,-9.16818 2.551943,-7.12043 6.56856,-13.13704 8.423875,-21.26533 -3.698554,-1.07224 -8.704992,1.60832 -10.773315,-0.6814 -2.672681,-2.95877 -1.238865,-7.74019 2.452675,-11.274977 4.193558,-4.015489 9.537046,-6.874858 14.843513,-9.815168 0.210888,-6.721758 2.219146,-14.261162 9.67054,-14.866945 5.269349,-0.428387 7.723632,2.990042 8.130852,11.330294 4.2022,0.679373 7.84986,1.649326 11.44863,2.644897 l 4.53322,13.495219 -9.73574,3.25882 5.94608,14.94755 -0.52544,11.07744 -12.66494,5.21396 c -3.218569,-3.08677 -4.284669,-7.5623 -8.145048,-11.49865 z"
         id="path5880" />
      <path
         style="fill:#013852;fill-opacity:1;stroke:none;stroke-width:0.264583px;stroke-linecap:butt;stroke-linejoin:miter;stroke-opacity:1"
         d="m 142.08505,94.031344 c -0.0115,-0.835266 -2.52848,-1.831221 -4.18583,-5.037944 -1.54421,-2.98782 -2.32989,-7.906605 -0.0246,-11.555875 5.06475,-8.01749 15.09802,-8.147745 20.33068,-1.911642 3.5505,4.231369 3.12169,10.602656 0.90217,14.113384 -1.47928,2.339854 -4.35332,3.94367 -4.0548,4.803951 0.14044,0.404707 1.44275,1.567767 2.10011,2.441543 6.23672,8.290009 8.70205,21.880869 9.39584,38.110549 0.0283,0.66317 -3.55075,6.28274 -17.60717,6.23255 -11.95931,-0.0427 -11.90266,-2.60519 -17.99676,-4.14852 0.0849,-15.79695 2.68814,-30.4695 7.70362,-38.192858 2.16779,-3.338179 3.44952,-3.924965 3.43674,-4.855138 z"
         id="path25416" />
      <path
         style="fill:#13658c;fill-opacity:1;stroke:none;stroke-width:0.264583px;stroke-linecap:butt;stroke-linejoin:miter;stroke-opacity:1"
         d="m 145.92831,84.784259 c 1.68275,2.715235 4.68539,4.815793 7.54203,4.711895 4.13733,-0.150477 8.74196,-5.153362 4.50435,-12.368675 -5.35968,-9.125842 -18.84282,-3.309745 -12.04638,7.65678 z"
         id="path29384" />
      <path
         style="fill:#13658c;fill-opacity:1;stroke:none;stroke-width:0.065;stroke-linecap:butt;stroke-linejoin:miter;stroke-miterlimit:4;stroke-dasharray:none;stroke-opacity:1"
         d="m 154.03189,94.16948 c -0.007,0.373308 -0.17432,0.930532 0.068,1.219208 1.16972,1.393468 5.57385,3.358974 9.21678,19.464532 1.27062,5.61749 1.99209,14.17913 1.69589,20.08011 -0.14273,2.84358 -10.73031,5.40739 -17.18819,5.1744 -1.81401,-11.20451 -5.30486,-31.37074 -2.68092,-41.380947 0.53364,-2.035813 5.41042,-4.542563 8.88844,-4.557303 z"
         id="path29894" />
      <path
         style="fill:#bcb92b;fill-opacity:1;stroke:none;stroke-width:0.264583px;stroke-linecap:butt;stroke-linejoin:miter;stroke-opacity:1"
         d="m 115.81413,98.16091 c -0.93771,-1.417118 -3.66539,-3.42138 -3.57451,-7.31938 0.0916,-3.930142 1.90535,-6.428187 3.53481,-7.838302 3.55869,-3.079656 10.91805,-2.762887 13.96704,2.063691 1.53558,2.430835 1.94083,6.013378 0.92333,8.767941 -0.93234,2.524041 -2.83902,3.969547 -3.08907,4.771484 1.14037,11.837156 2.37683,19.513276 3.56525,29.269916 4.94899,0.91762 11.43363,3.60861 12.08653,8.13161 0.23625,1.6366 0.39938,5.7252 0.29596,8.58755 -0.0605,1.67463 -2.82706,5.30749 -12.39054,7.28274 -5.04064,1.0411 -14.24607,0.71453 -18.05665,0.15347 -6.05712,-0.89182 -13.081424,-3.82735 -13.078915,-7.9085 0.0027,-4.41878 0.188175,-7.71277 0.393215,-8.29649 2.37157,-6.75149 11.88779,-7.85926 11.88779,-7.85926 1.18472,-9.91999 2.96165,-18.34351 3.53576,-29.80647 z"
         id="path8519" />
      <path
         style="fill:#ffe921;fill-opacity:1;stroke:none;stroke-width:0.264583px;stroke-linecap:butt;stroke-linejoin:miter;stroke-opacity:1"
         d="m 119.42085,91.300698 c -1.40448,-2.803147 -1.31803,-6.961177 1.36127,-8.250885 4.5034,-2.16776 8.31754,2.317128 8.88952,4.95872 0.45625,2.107091 0.28693,4.680385 -1.6362,6.25738 -3.08486,2.529636 -7.20093,-0.143748 -8.61459,-2.965215 z"
         id="path11917" />
      <path
         style="fill:#ffe921;fill-opacity:1;stroke:none;stroke-width:0.065;stroke-linecap:butt;stroke-linejoin:miter;stroke-miterlimit:4;stroke-dasharray:none;stroke-opacity:1"
         d="m 126.17507,98.698305 c -1.201,-0.127254 -5.19189,0.847253 -5.23611,3.338815 l -0.58818,33.14054 c -2.21393,0.92662 -4.99637,2.05185 -6.97503,1.76924 -1.64509,-0.23497 -2.70844,-1.21468 -2.75173,-2.05747 -0.0721,-1.40256 1.44062,-2.04176 2.63861,-2.65863 l 0.28621,-3.04656 c -1.97181,0.0612 -8.82627,2.1562 -9.0461,5.47412 -0.21806,3.29125 9.13631,9.58094 15.27824,10.00842 l 0.16864,6.54358 c 3.75262,0.23596 10.09651,-0.16396 14.99106,-1.66301 2.69042,-0.82399 7.34449,-3.29023 7.2907,-5.15021 l -0.22329,-7.72136 c -0.0953,-3.2944 -5.53184,-6.8686 -12.10705,-7.66391 z"
         id="path12693" />
    </g>
  </g>
</svg>
